<svg xmlns="http://www.w3.org/2000/svg" xmlns:xlink="http://www.w3.org/1999/xlink" viewBox="0 0 672.67 656.38"><defs><style>.cls-1{fill:none;}.cls-2{isolation:isolate;}.cls-3{clip-path:url(#clip-path);}.cls-4{fill:red;}</style><clipPath id="clip-path" transform="translate(-9.9 0)"><rect class="cls-1" width="817.83" height="817.83"/></clipPath></defs><g id="Layer_2" data-name="Layer 2"><g id="Layer_1-2" data-name="Layer 1"><g class="cls-2"><g class="cls-3"><g class="cls-3"><path class="cls-4" d="M49.69,46.7A67.61,67.61,0,0,0,29.15,61,68.36,68.36,0,0,0,15,81.72,57.67,57.67,0,0,0,9.9,105.07q0,11.69,33.37,245.17T81.78,599.3a80.75,80.75,0,0,0,16.69,28.54Q110,640.82,128,648.6t44.93,7.78q27,0,130.94-22T517,594.11Q626.08,576,646.62,563t28.24-29.83a80.55,80.55,0,0,0,7.7-33.73q0-16.86-28.24-127.13t-30.81-118q-2.57-7.78-7.7-9.08t-10.27,5.19q-5.13,6.48-7.7,18.16T618.38,371q23.1,90.79,24.39,106.37t-3.85,27.24q-5.14,11.67-205.4,49.29T208.87,592.82q-24.39,1.29-34.66-2.6T155,576a61.61,61.61,0,0,1-12.84-24.64q-3.85-14.28-29.53-205t-26.95-214Q84.35,109,86.92,102.48t14.12-13Q112.59,83,129.28,83T276.91,98.59q130.93,15.55,154,15.56T463.05,109a29.49,29.49,0,0,0,12.84-14.27q1.92-4.53,3.85-9.08L466.9,81.72q-12.84-3.89-209.25-22T49.69,46.7Zm460.86,131Q377,355.42,371.91,355.43t-55.2-55.78q-50.07-55.78-56.49-53.18t-25.67,27.24q-19.26,24.65-19.26,28.54T300,387.86q84.72,81.72,91.14,80.43t15.41-16.87q9-15.57,65.47-123.23t116.81-214Q649.2,7.79,646.62,3.89L644.05,0Z" transform="translate(-9.9 0)"/></g></g></g></g></g></svg>