<svg
    width="14"
    height="14"
    viewBox="0 0 14 14"
    fill="none"
    xmlns="http://www.w3.org/2000/svg"
>
    <path
        d="M8.55586 7.00039L13.2781 2.27813C13.7078 1.84844 13.7078 1.15234 13.2781 0.722656C12.8484 0.292969 12.1523 0.292969 11.7227 0.722656L7.00039 5.44492L2.27813 0.722656C1.84844 0.292969 1.15234 0.292969 0.722656 0.722656C0.292969 1.15234 0.292969 1.84844 0.722656 2.27813L5.44492 7.00039L0.722656 11.7227C0.292969 12.1523 0.292969 12.8484 0.722656 13.2781C0.9375 13.493 1.21895 13.6004 1.50039 13.6004C1.78184 13.6004 2.06328 13.493 2.27813 13.2781L7.00039 8.55586L11.7227 13.2781C11.9375 13.493 12.2189 13.6004 12.5004 13.6004C12.7818 13.6004 13.0633 13.493 13.2781 13.2781C13.7078 12.8484 13.7078 12.1523 13.2781 11.7227L8.55586 7.00039Z"
        fill="white"
    />
</svg>