<svg
    width="18"
    height="22"
    viewBox="0 0 18 22"
    fill="none"
    xmlns="http://www.w3.org/2000/svg"
>
    <path
        d="M0.200196 16.1333C0.199633 17.0282 0.403933 17.9114 0.797443 18.7151C1.19095 19.5189 1.76323 20.2219 2.47042 20.7703C3.17762 21.3186 4.00096 21.6979 4.87737 21.8789C5.75378 22.0599 6.65999 22.0378 7.52656 21.8145C8.49354 22.0609 9.50686 22.0609 10.4738 21.8145C11.3404 22.0378 12.2466 22.0599 13.123 21.8789C13.9994 21.6979 14.8228 21.3186 15.53 20.7703C16.2372 20.2219 16.8094 19.5189 17.203 18.7151C17.5965 17.9114 17.8008 17.0282 17.8002 16.1333C17.8002 11.9834 14.296 8.97893 11.7377 7.55333C11.9497 7.43484 12.1164 7.2493 12.2116 7.02584C12.3067 6.80237 12.325 6.55364 12.2634 6.31868C12.2019 6.08372 12.0642 5.87584 11.8717 5.72767C11.6793 5.57949 11.4431 5.49941 11.2002 5.5H11.1635L12.2635 1.3849C12.3073 1.22184 12.3129 1.05091 12.2799 0.88534C12.247 0.719768 12.1764 0.564001 12.0736 0.4301C11.9707 0.296199 11.8385 0.187758 11.687 0.113175C11.5356 0.0385915 11.369 -0.000132926 11.2002 3.42817e-07H9.73353C9.44179 3.42817e-07 9.162 0.115893 8.95571 0.322183C8.74942 0.528473 8.63353 0.808262 8.63353 1.1H6.8002C6.62579 1.10041 6.45395 1.14213 6.29877 1.22173C6.14358 1.30133 6.00945 1.41655 5.90736 1.55797C5.80458 1.69874 5.73713 1.86216 5.71071 2.03445C5.6843 2.20674 5.69968 2.38286 5.75556 2.54797L6.74556 5.50623C6.50801 5.51707 6.28046 5.60506 6.09742 5.75687C5.91437 5.90867 5.78581 6.11601 5.73121 6.34746C5.67661 6.57891 5.69896 6.82185 5.79486 7.03946C5.89077 7.25706 6.055 7.43747 6.26266 7.55333C3.70443 8.97893 0.200196 11.9834 0.200196 16.1333ZM6.50246 1.9866C6.53618 1.93907 6.58083 1.90034 6.63264 1.87367C6.68446 1.84699 6.74192 1.83316 6.8002 1.83333H8.63353V2.93333C8.63353 3.03058 8.67216 3.12384 8.74092 3.19261C8.80969 3.26137 8.90295 3.3 9.0002 3.3C9.09744 3.3 9.19071 3.26137 9.25947 3.19261C9.32823 3.12384 9.36686 3.03058 9.36686 2.93333V1.1C9.36686 1.00275 9.40549 0.909491 9.47426 0.840728C9.54302 0.771965 9.63628 0.733334 9.73353 0.733334H11.2002C11.2565 0.733409 11.312 0.746435 11.3624 0.771402C11.4128 0.796369 11.4568 0.832607 11.491 0.877311C11.5252 0.922015 11.5486 0.973985 11.5595 1.0292C11.5703 1.08441 11.5684 1.14138 11.5537 1.1957L10.4049 5.5H7.51556L6.45223 2.31477C6.43363 2.26006 6.42848 2.20167 6.43722 2.14454C6.44597 2.08742 6.46835 2.03324 6.50246 1.9866ZM6.8002 6.23333H11.2002C11.2974 6.23333 11.3907 6.27196 11.4595 6.34073C11.5282 6.40949 11.5669 6.50275 11.5669 6.6C11.5669 6.69725 11.5282 6.79051 11.4595 6.85927C11.3907 6.92804 11.2974 6.96667 11.2002 6.96667H6.8002C6.70295 6.96667 6.60969 6.92804 6.54092 6.85927C6.47216 6.79051 6.43353 6.69725 6.43353 6.6C6.43353 6.50275 6.47216 6.40949 6.54092 6.34073C6.60969 6.27196 6.70295 6.23333 6.8002 6.23333ZM7.60906 7.7H10.3913C12.7402 8.72227 17.0669 11.7524 17.0669 16.1333C17.0654 17.4943 16.5241 18.7992 15.5617 19.7615C14.5994 20.7239 13.2945 21.2652 11.9335 21.2667C11.9035 21.2667 11.8738 21.2641 11.8437 21.2637C11.8719 21.248 11.9013 21.234 11.9291 21.2179C12.0134 21.1693 12.075 21.0892 12.1002 20.9952C12.1255 20.9012 12.1123 20.801 12.0637 20.7167C12.0151 20.6324 11.935 20.5708 11.841 20.5456C11.747 20.5203 11.6468 20.5335 11.5625 20.5821C11.1887 20.7968 10.7901 20.9651 10.3756 21.0833C9.47529 21.3285 8.52584 21.3285 7.62556 21.0833C7.21058 20.9657 6.81151 20.7979 6.4372 20.5836C6.39545 20.5595 6.34937 20.5439 6.30159 20.5376C6.2538 20.5313 6.20526 20.5345 6.15871 20.547C6.11217 20.5595 6.06854 20.5811 6.03032 20.6104C5.9921 20.6398 5.96004 20.6764 5.93596 20.7181C5.91189 20.7599 5.89627 20.806 5.89 20.8537C5.88374 20.9015 5.88694 20.9501 5.89944 20.9966C5.91193 21.0432 5.93348 21.0868 5.96283 21.125C5.99219 21.1632 6.02878 21.1953 6.07053 21.2194C6.0984 21.2355 6.12773 21.2494 6.15596 21.2652C6.1259 21.2652 6.0962 21.2681 6.06613 21.2681C4.70501 21.2665 3.40013 20.7249 2.43788 19.7622C1.47562 18.7996 0.934597 17.4945 0.93353 16.1333C0.93353 11.7524 5.2602 8.72227 7.60906 7.7Z"
        fill="white"
    />
    <path
        d="M6.80025 12.4665C6.80121 12.9859 6.98573 13.4882 7.32121 13.8847C7.65668 14.2813 8.12152 14.5465 8.63358 14.6335V17.5477C8.31966 17.4667 8.04145 17.2839 7.84243 17.028C7.6434 16.772 7.5348 16.4573 7.53358 16.1331C7.53358 16.0359 7.49495 15.9426 7.42619 15.8739C7.35743 15.8051 7.26416 15.7665 7.16692 15.7665C7.06967 15.7665 6.97641 15.8051 6.90764 15.8739C6.83888 15.9426 6.80025 16.0359 6.80025 16.1331C6.80121 16.6525 6.98573 17.1549 7.32121 17.5514C7.65668 17.9479 8.12152 18.2131 8.63358 18.3001V18.6998C8.63358 18.797 8.67221 18.8903 8.74098 18.9591C8.80974 19.0278 8.903 19.0665 9.00025 19.0665C9.0975 19.0665 9.19076 19.0278 9.25952 18.9591C9.32829 18.8903 9.36692 18.797 9.36692 18.6998V18.3001C9.87933 18.214 10.3446 17.949 10.6802 17.5523C11.0158 17.1555 11.1999 16.6527 11.1999 16.1331C11.1999 15.6135 11.0158 15.1107 10.6802 14.714C10.3446 14.3173 9.87933 14.0523 9.36692 13.9661V11.0519C9.68084 11.1329 9.95905 11.3157 10.1581 11.5716C10.3571 11.8276 10.4657 12.1423 10.4669 12.4665C10.4669 12.5637 10.5055 12.657 10.5743 12.7257C10.6431 12.7945 10.7363 12.8331 10.8336 12.8331C10.9308 12.8331 11.0241 12.7945 11.0929 12.7257C11.1616 12.657 11.2002 12.5637 11.2002 12.4665C11.1993 11.9471 11.0148 11.4447 10.6793 11.0482C10.3438 10.6517 9.87898 10.3865 9.36692 10.2995V9.8998C9.36692 9.80256 9.32829 9.70929 9.25952 9.64053C9.19076 9.57177 9.0975 9.53314 9.00025 9.53314C8.903 9.53314 8.80974 9.57177 8.74098 9.64053C8.67221 9.70929 8.63358 9.80256 8.63358 9.8998V10.2995C8.12152 10.3865 7.65668 10.6517 7.32121 11.0482C6.98573 11.4447 6.80121 11.9471 6.80025 12.4665ZM7.53358 12.4665C7.5348 12.1423 7.6434 11.8276 7.84243 11.5716C8.04145 11.3157 8.31966 11.1329 8.63358 11.0519V13.8811C8.31966 13.8 8.04145 13.6172 7.84243 13.3613C7.6434 13.1054 7.5348 12.7907 7.53358 12.4665ZM10.4669 16.1331C10.4657 16.4573 10.3571 16.772 10.1581 17.028C9.95905 17.2839 9.68084 17.4667 9.36692 17.5477V14.7185C9.68084 14.7996 9.95905 14.9824 10.1581 15.2383C10.3571 15.4943 10.4657 15.8089 10.4669 16.1331ZM2.49888 13.8965C2.549 13.9209 2.60409 13.9335 2.65985 13.9331C2.72857 13.9333 2.79595 13.9141 2.85429 13.8778C2.91264 13.8415 2.95961 13.7895 2.98985 13.7278C3.98975 11.6913 6.07792 10.0934 7.69858 9.27647C7.74161 9.2548 7.77994 9.22487 7.8114 9.18839C7.84285 9.1519 7.86682 9.10958 7.88192 9.06384C7.89702 9.0181 7.90296 8.96983 7.8994 8.92179C7.89585 8.87375 7.88287 8.82688 7.8612 8.78385C7.83953 8.74083 7.8096 8.7025 7.77312 8.67104C7.73664 8.63958 7.69431 8.61562 7.64857 8.60052C7.60283 8.58542 7.55456 8.57948 7.50652 8.58303C7.45848 8.58659 7.41161 8.59957 7.36858 8.62124C6.53075 9.04327 3.69128 10.635 2.33132 13.4037C2.30977 13.447 2.29702 13.4942 2.29379 13.5424C2.29056 13.5907 2.29691 13.6392 2.31249 13.685C2.32807 13.7308 2.35255 13.773 2.38455 13.8093C2.41654 13.8456 2.4554 13.8753 2.49888 13.8965Z"
        fill="white"
    />
</svg>
