<svg
                    width="19"
                    height="19"
                    viewBox="0 0 19 19"
                    fill="none"
                    xmlns="http://www.w3.org/2000/svg"
                >
                    <path
                        fillRule="evenodd"
                        clipRule="evenodd"
                        d="M0.744141 5.09831C0.744141 2.69357 2.69357 0.744141 5.09831 0.744141H12.9016C15.3064 0.744141 17.2557 2.69357 17.2557 5.09831V6.46002C17.2557 6.83972 16.9479 7.14752 16.5682 7.14752C16.1886 7.14752 15.8807 6.83972 15.8807 6.46002V5.09831C15.8807 3.45296 14.547 2.11914 12.9016 2.11914H5.09831C3.45296 2.11914 2.11914 3.45296 2.11914 5.09831V12.9016C2.11914 14.547 3.45296 15.8807 5.09831 15.8807H6.30173C6.68142 15.8807 6.98923 16.1886 6.98923 16.5682C6.98923 16.948 6.68142 17.2557 6.30173 17.2557H5.09831C2.69357 17.2557 0.744141 15.3064 0.744141 12.9016V5.09831Z"
                        fill="white"
                    />
                    <path
                        fillRule="evenodd"
                        clipRule="evenodd"
                        d="M13.7073 9.67278C14.7006 8.67939 16.3112 8.67939 17.3045 9.67278C18.2978 10.6661 18.2978 12.2766 17.3045 13.2699L12.8824 17.692C12.5816 17.9928 12.1735 18.1618 11.748 18.1618H10.4195C9.53364 18.1618 8.81543 17.4436 8.81543 16.5577V15.2292C8.81543 14.8037 8.98437 14.3956 9.28522 14.0949L13.7073 9.67278ZM16.3322 10.645C15.8759 10.1887 15.1359 10.1887 14.6796 10.645L10.2575 15.0671C10.2145 15.1101 10.1904 15.1684 10.1904 15.2292V16.5577C10.1904 16.6843 10.293 16.7868 10.4195 16.7868H11.748C11.8088 16.7868 11.8671 16.7626 11.9101 16.7197L16.3322 12.2977C16.7886 11.8412 16.7886 11.1014 16.3322 10.645Z"
                        fill="white"
                    />
                    <path
                        d="M8.7398 5.19019C9.03667 5.19019 9.27822 4.94863 9.27822 4.65176C9.27822 4.35483 9.03667 4.11328 8.7398 4.11328H7.26011C6.96323 4.11328 6.72168 4.35483 6.72168 4.65176C6.72168 4.94863 6.96323 5.19019 7.26011 5.19019H8.7398ZM6.92168 4.65176C6.92168 4.46514 7.07349 4.31328 7.26011 4.31328H8.7398C8.92642 4.31328 9.07822 4.46514 9.07822 4.65176C9.07822 4.83838 8.92642 4.99019 8.7398 4.99019H7.26011C7.07349 4.99019 6.92168 4.83838 6.92168 4.65176Z"
                        fill="white"
                    />
                    <path
                        d="M4.31273 8.25855C4.36752 8.27632 4.42372 8.28516 4.47973 8.28516C4.56352 8.28516 4.64672 8.26538 4.72357 8.22622C4.8517 8.16094 4.94677 8.04966 4.99125 7.91284L5.44848 6.50562C5.54018 6.22324 5.3851 5.9189 5.10277 5.8271C4.82025 5.73555 4.51601 5.89053 4.42426 6.1728L3.96703 7.58008C3.9226 7.71685 3.93412 7.86275 3.9994 7.99092C4.06469 8.11904 4.17597 8.21411 4.31273 8.25855ZM4.15727 7.6419L4.61449 6.23462C4.66093 6.09175 4.79394 6.00073 4.93666 6.00073C4.97123 6.00073 5.00634 6.0061 5.04096 6.01733C5.21845 6.075 5.31591 6.26636 5.25824 6.4438L4.80102 7.85103C4.77309 7.93701 4.71332 8.00698 4.63275 8.048C4.55219 8.08906 4.46049 8.09634 4.37455 8.06831C4.28856 8.04038 4.21864 7.98066 4.17758 7.9001C4.13656 7.81958 4.12934 7.72783 4.15727 7.6419Z"
                        fill="white"
                    />
                    <path
                        d="M6.56232 11.8879C6.59064 11.8879 6.61915 11.8856 6.64767 11.8811C6.78976 11.8586 6.91451 11.7822 6.99908 11.6658C7.17355 11.4256 7.12013 11.0882 6.87994 10.9137L5.68287 10.044C5.44274 9.86958 5.10533 9.92295 4.93077 10.1631C4.75626 10.4033 4.80968 10.7407 5.04986 10.9152L6.24693 11.7849C6.33995 11.8525 6.44952 11.8879 6.56232 11.8879ZM5.09259 10.2807C5.1587 10.1897 5.26207 10.1413 5.36681 10.1413C5.4358 10.1413 5.50538 10.1623 5.56529 10.2058L6.76236 11.0755C6.91334 11.1852 6.94693 11.3973 6.83727 11.5482C6.78414 11.6214 6.70568 11.6694 6.61642 11.6836C6.52657 11.6976 6.43756 11.6762 6.36451 11.6231L5.16744 10.7534C5.01647 10.6437 4.98287 10.4316 5.09259 10.2807Z"
                        fill="white"
                    />
                    <path
                        d="M11.0684 10.1631C10.8938 9.92295 10.5564 9.86958 10.3163 10.044L9.11921 10.9137C8.87903 11.0882 8.82561 11.4256 9.00007 11.6658C9.08464 11.7822 9.2094 11.8586 9.35149 11.8811C9.38 11.8856 9.40852 11.8879 9.43684 11.8879C9.54963 11.8879 9.6592 11.8525 9.75222 11.7849L10.9493 10.9152C11.1895 10.7407 11.2429 10.4033 11.0684 10.1631ZM10.8317 10.7534L9.63464 11.6231C9.56155 11.6762 9.47209 11.6976 9.38274 11.6836C9.29348 11.6694 9.21501 11.6214 9.16189 11.5482C9.05222 11.3973 9.08581 11.1852 9.23679 11.0755L10.4339 10.2058C10.5849 10.0961 10.7968 10.1297 10.9066 10.2807C11.0163 10.4316 10.9827 10.6437 10.8317 10.7534Z"
                        fill="white"
                    />
                    <path
                        d="M11.576 6.17282C11.4842 5.89055 11.1802 5.73552 10.8975 5.82712C10.6151 5.91892 10.4601 6.22326 10.5518 6.50563L11.009 7.91286C11.0535 8.04968 11.1485 8.16096 11.2767 8.22624C11.3535 8.2654 11.4367 8.28518 11.5205 8.28518C11.5765 8.28518 11.6327 8.27634 11.6875 8.25856C11.8243 8.21413 11.9356 8.11906 12.0008 7.99094C12.0661 7.86276 12.0776 7.71687 12.0332 7.5801L11.576 6.17282ZM11.8227 7.90012C11.7816 7.98068 11.7117 8.0404 11.6257 8.06833C11.5399 8.09646 11.4481 8.08908 11.3675 8.04802C11.2869 8.007 11.2272 7.93703 11.1992 7.85104L10.742 6.44382C10.6843 6.26638 10.7818 6.07502 10.9593 6.01735C11.1369 5.95993 11.3281 6.05725 11.3858 6.23464L11.843 7.64191C11.8709 7.72785 11.8637 7.8196 11.8227 7.90012Z"
                        fill="white"
                    />
                    <path
                        d="M8.00024 5.48828C6.55322 5.48828 5.37598 6.66548 5.37598 8.1125C5.37598 9.55952 6.55322 10.7368 8.00024 10.7368C9.44727 10.7368 10.6245 9.55952 10.6245 8.1125C10.6245 6.66548 9.44727 5.48828 8.00024 5.48828ZM8.00024 10.5368C6.66348 10.5368 5.57598 9.44927 5.57598 8.1125C5.57598 6.77578 6.66348 5.68828 8.00024 5.68828C9.33701 5.68828 10.4245 6.77578 10.4245 8.1125C10.4245 9.44927 9.33701 10.5368 8.00024 10.5368Z"
                        fill="white"
                    />
                </svg>