<?xml version="1.0" encoding="utf-8"?>
<!-- Generator: Adobe Illustrator 26.0.1, SVG Export Plug-In . SVG Version: 6.00 Build 0)  -->
<svg version="1.1" id="Layer_1" xmlns="http://www.w3.org/2000/svg" xmlns:xlink="http://www.w3.org/1999/xlink" x="0px" y="0px"
	 viewBox="0 0 897.4 337.25" style="enable-background:new 0 0 897.4 337.25;" xml:space="preserve">
<style type="text/css">
	.st0{fill:#FC0000;}
	.st1{fill:#FFFFFF;}
</style>
<g>
	<g>
		<path class="st0" d="M241.78,294.86c4.78-1.07,65.6-11.31,65.6-11.31s37.42-8.16,27.13-47.7c-9.36-35.98-25.11-96.06-27.87-106.6
			c-0.2-0.75-1.12-1.01-1.68-0.47c-3.13,3.01-10.81,11.69-8.06,22.29c3.43,13.18,21.02,85.04,21.02,85.04s4.29,18.28-10.17,21.72
			c-14.46,3.43-193.49,34.42-193.49,34.42s-26.79,3.88-30.68-25.46S57.68,75.82,57.68,75.82s-4.3-21.69,22.51-19.61
			c26.8,2.07,142.11,15.03,142.11,15.03s15,1.59,19.64-14.16c0.18-0.62-0.26-1.25-0.9-1.31L60.75,38.42c-2.71-0.12-5.51-0.4-14-0.36
			c-5.85,0.03-22.8,10.07-23.13,26.77C23.24,84.4,55.99,293.21,55.99,293.21s9.85,34.44,54.51,26.69
			c32.25-5.6,45.64-8.71,50.59-10.01c2.31-0.51,4.62-1.02,6.93-1.53L241.78,294.86z"/>
		<path class="st0" d="M140.23,129.58l-21.68,27.31c-0.41,0.52-0.36,1.26,0.12,1.72l81.07,77.01c0.61,0.58,1.59,0.42,2-0.31
			l119.7-217.19c0.76-1.38-1.18-2.65-2.13-1.39L192.82,182.81c-0.48,0.63-1.42,0.68-1.96,0.09l-48.69-53.39
			C141.64,128.93,140.72,128.96,140.23,129.58z"/>
	</g>
	<g>
		<path class="st1" d="M434.63,155.3c-5.65,0-10.9-0.94-15.74-2.81c-4.84-1.87-9.04-4.52-12.61-7.95
			c-3.57-3.43-6.34-7.47-8.32-12.13c-1.98-4.66-2.97-9.75-2.97-15.26c0-5.51,0.99-10.6,2.97-15.26c1.98-4.66,4.77-8.71,8.37-12.13
			c3.6-3.43,7.81-6.08,12.61-7.95c4.8-1.87,10.07-2.81,15.79-2.81c6.08,0,11.62,1.04,16.64,3.13c5.02,2.08,9.25,5.18,12.72,9.27
			l-8.9,8.37c-2.69-2.9-5.69-5.07-9.01-6.52c-3.32-1.45-6.93-2.17-10.81-2.17c-3.89,0-7.44,0.64-10.65,1.91
			c-3.22,1.27-6.01,3.07-8.37,5.4c-2.37,2.33-4.2,5.09-5.51,8.27c-1.31,3.18-1.96,6.68-1.96,10.49c0,3.81,0.65,7.31,1.96,10.49
			c1.31,3.18,3.14,5.93,5.51,8.27c2.37,2.33,5.16,4.13,8.37,5.4c3.21,1.27,6.76,1.91,10.65,1.91c3.88,0,7.49-0.72,10.81-2.17
			c3.32-1.45,6.32-3.66,9.01-6.62l8.9,8.48c-3.46,4.03-7.7,7.1-12.72,9.22C446.36,154.24,440.78,155.3,434.63,155.3z"/>
		<path class="st1" d="M492.6,154.99c-4.24,0-7.95-0.73-11.13-2.17c-3.18-1.45-5.64-3.46-7.37-6.04c-1.73-2.58-2.6-5.49-2.6-8.74
			c0-3.18,0.76-6.04,2.28-8.58c1.52-2.54,4.01-4.56,7.47-6.04c3.46-1.48,8.05-2.23,13.78-2.23h16.43v8.8h-15.47
			c-4.52,0-7.56,0.73-9.11,2.17c-1.56,1.45-2.33,3.23-2.33,5.35c0,2.4,0.95,4.31,2.86,5.72c1.91,1.41,4.56,2.12,7.95,2.12
			c3.25,0,6.16-0.74,8.74-2.23c2.58-1.48,4.43-3.67,5.56-6.57l2.23,7.95c-1.27,3.32-3.55,5.9-6.84,7.74
			C501.76,154.07,497.61,154.99,492.6,154.99z M510.4,154.24V142.8l-0.74-2.44v-20.03c0-3.88-1.17-6.9-3.5-9.06
			c-2.33-2.15-5.86-3.23-10.6-3.23c-3.18,0-6.3,0.49-9.38,1.48c-3.07,0.99-5.67,2.37-7.79,4.13l-5.19-9.64
			c3.04-2.33,6.66-4.08,10.86-5.25c4.2-1.17,8.57-1.75,13.09-1.75c8.2,0,14.54,1.96,19.02,5.88c4.49,3.92,6.73,9.98,6.73,18.17
			v33.17H510.4z"/>
		<path class="st1" d="M546.54,88.33c-2.47,0-4.5-0.78-6.09-2.33c-1.59-1.55-2.38-3.43-2.38-5.62c0-2.26,0.79-4.15,2.38-5.67
			c1.59-1.52,3.62-2.28,6.09-2.28c2.47,0,4.5,0.73,6.09,2.17c1.59,1.45,2.38,3.27,2.38,5.46c0,2.33-0.78,4.29-2.33,5.88
			C551.13,87.53,549.08,88.33,546.54,88.33z M539.86,154.24V97.65h13.25v56.59H539.86z"/>
		<path class="st1" d="M587.97,154.99c-4.73,0-9.27-0.62-13.62-1.85c-4.35-1.24-7.79-2.74-10.33-4.5l5.09-10.07
			c2.54,1.63,5.58,2.97,9.11,4.03c3.53,1.06,7.06,1.59,10.6,1.59c4.17,0,7.19-0.56,9.06-1.7c1.87-1.13,2.81-2.65,2.81-4.56
			c0-1.55-0.64-2.74-1.91-3.55c-1.27-0.81-2.93-1.43-4.98-1.85c-2.05-0.42-4.33-0.81-6.84-1.17c-2.51-0.35-5.02-0.83-7.52-1.43
			c-2.51-0.6-4.79-1.48-6.84-2.65c-2.05-1.17-3.71-2.74-4.98-4.72c-1.27-1.98-1.91-4.59-1.91-7.84c0-3.6,1.02-6.73,3.07-9.38
			c2.05-2.65,4.93-4.7,8.64-6.15c3.71-1.45,8.11-2.17,13.19-2.17c3.81,0,7.67,0.42,11.55,1.27c3.88,0.85,7.1,2.05,9.64,3.6
			l-5.09,10.07c-2.69-1.62-5.39-2.74-8.11-3.34c-2.72-0.6-5.42-0.9-8.11-0.9c-4.03,0-7.01,0.6-8.95,1.8
			c-1.94,1.2-2.91,2.72-2.91,4.56c0,1.7,0.64,2.97,1.91,3.81c1.27,0.85,2.93,1.52,4.98,2.01c2.05,0.49,4.33,0.9,6.84,1.22
			c2.51,0.32,5,0.79,7.47,1.43c2.47,0.64,4.75,1.5,6.84,2.6c2.08,1.1,3.76,2.63,5.03,4.61c1.27,1.98,1.91,4.56,1.91,7.74
			c0,3.53-1.04,6.61-3.13,9.22c-2.08,2.61-5.03,4.65-8.85,6.09C597.83,154.26,593.27,154.99,587.97,154.99z"/>
		<path class="st1" d="M642.55,154.99c-4.73,0-9.27-0.62-13.62-1.85c-4.35-1.24-7.79-2.74-10.33-4.5l5.09-10.07
			c2.54,1.63,5.58,2.97,9.11,4.03c3.53,1.06,7.06,1.59,10.6,1.59c4.17,0,7.19-0.56,9.06-1.7c1.87-1.13,2.81-2.65,2.81-4.56
			c0-1.55-0.64-2.74-1.91-3.55c-1.27-0.81-2.93-1.43-4.98-1.85c-2.05-0.42-4.33-0.81-6.84-1.17c-2.51-0.35-5.02-0.83-7.52-1.43
			c-2.51-0.6-4.79-1.48-6.84-2.65c-2.05-1.17-3.71-2.74-4.98-4.72c-1.27-1.98-1.91-4.59-1.91-7.84c0-3.6,1.02-6.73,3.07-9.38
			c2.05-2.65,4.93-4.7,8.64-6.15c3.71-1.45,8.11-2.17,13.19-2.17c3.81,0,7.67,0.42,11.55,1.27c3.88,0.85,7.1,2.05,9.64,3.6
			l-5.09,10.07c-2.69-1.62-5.39-2.74-8.11-3.34c-2.72-0.6-5.42-0.9-8.11-0.9c-4.03,0-7.01,0.6-8.95,1.8
			c-1.94,1.2-2.91,2.72-2.91,4.56c0,1.7,0.64,2.97,1.91,3.81c1.27,0.85,2.93,1.52,4.98,2.01c2.05,0.49,4.33,0.9,6.84,1.22
			c2.51,0.32,5,0.79,7.47,1.43c2.47,0.64,4.75,1.5,6.84,2.6c2.08,1.1,3.76,2.63,5.03,4.61c1.27,1.98,1.91,4.56,1.91,7.74
			c0,3.53-1.04,6.61-3.13,9.22c-2.08,2.61-5.03,4.65-8.85,6.09C652.4,154.26,647.85,154.99,642.55,154.99z"/>
		<path class="st1" d="M706.24,154.99c-6.29,0-11.78-1.25-16.48-3.76c-4.7-2.51-8.34-5.95-10.92-10.33
			c-2.58-4.38-3.87-9.36-3.87-14.94c0-5.65,1.25-10.65,3.76-15c2.51-4.35,5.97-7.75,10.39-10.23c4.41-2.47,9.45-3.71,15.1-3.71
			c5.51,0,10.42,1.2,14.73,3.6c4.31,2.4,7.7,5.79,10.17,10.17c2.47,4.38,3.71,9.54,3.71,15.47c0,0.57-0.02,1.2-0.05,1.91
			c-0.04,0.71-0.09,1.38-0.16,2.01h-47.16v-8.8h40.16l-5.19,2.76c0.07-3.25-0.6-6.11-2.01-8.58c-1.41-2.47-3.34-4.41-5.78-5.83
			c-2.44-1.41-5.25-2.12-8.43-2.12c-3.25,0-6.09,0.71-8.53,2.12c-2.44,1.41-4.34,3.37-5.72,5.88c-1.38,2.51-2.07,5.46-2.07,8.85
			v2.12c0,3.39,0.78,6.4,2.33,9.01c1.55,2.61,3.74,4.63,6.57,6.04c2.83,1.41,6.08,2.12,9.75,2.12c3.18,0,6.04-0.49,8.58-1.48
			c2.54-0.99,4.8-2.54,6.78-4.66l7.1,8.16c-2.54,2.97-5.74,5.25-9.59,6.84C715.58,154.19,711.18,154.99,706.24,154.99z"/>
		<path class="st1" d="M400.29,265.55v-74.18h11.34l32.43,54.15h-5.93l31.9-54.15h11.34l0.11,74.18h-13.03l-0.11-53.73h2.76
			l-27.13,45.25h-6.15l-27.55-45.25h3.18v53.73H400.29z"/>
		<path class="st1" d="M517.29,266.3c-4.24,0-7.95-0.73-11.13-2.17c-3.18-1.45-5.64-3.46-7.37-6.04c-1.73-2.58-2.6-5.49-2.6-8.74
			c0-3.18,0.76-6.04,2.28-8.58c1.52-2.54,4.01-4.56,7.47-6.04c3.46-1.48,8.05-2.23,13.78-2.23h16.43v8.8h-15.47
			c-4.52,0-7.56,0.73-9.11,2.17c-1.56,1.45-2.33,3.23-2.33,5.35c0,2.4,0.95,4.31,2.86,5.72c1.91,1.41,4.56,2.12,7.95,2.12
			c3.25,0,6.16-0.74,8.74-2.23c2.58-1.48,4.43-3.67,5.56-6.57l2.23,7.95c-1.27,3.32-3.55,5.9-6.84,7.74
			C526.45,265.38,522.3,266.3,517.29,266.3z M535.09,265.55v-11.45l-0.74-2.44v-20.03c0-3.88-1.17-6.9-3.5-9.06
			c-2.33-2.15-5.86-3.23-10.6-3.23c-3.18,0-6.3,0.49-9.38,1.48c-3.07,0.99-5.67,2.37-7.79,4.13l-5.19-9.64
			c3.04-2.33,6.66-4.08,10.86-5.25c4.2-1.17,8.57-1.75,13.09-1.75c8.2,0,14.54,1.96,19.02,5.88c4.49,3.92,6.73,9.98,6.73,18.17
			v33.17H535.09z"/>
		<path class="st1" d="M596.66,208.33c4.52,0,8.57,0.88,12.13,2.65c3.57,1.77,6.38,4.47,8.43,8.11c2.05,3.64,3.07,8.32,3.07,14.04
			v32.43h-13.25v-30.73c0-5.02-1.18-8.76-3.55-11.23c-2.37-2.47-5.67-3.71-9.91-3.71c-3.11,0-5.86,0.64-8.27,1.91
			c-2.4,1.27-4.26,3.16-5.56,5.67c-1.31,2.51-1.96,5.67-1.96,9.48v28.61h-13.25v-56.59h12.61v15.26l-2.23-4.66
			c1.98-3.6,4.86-6.38,8.64-8.32C587.35,209.3,591.72,208.33,596.66,208.33z"/>
		<path class="st1" d="M654.2,266.3c-4.24,0-7.95-0.73-11.13-2.17c-3.18-1.45-5.64-3.46-7.37-6.04c-1.73-2.58-2.6-5.49-2.6-8.74
			c0-3.18,0.76-6.04,2.28-8.58c1.52-2.54,4.01-4.56,7.47-6.04c3.46-1.48,8.05-2.23,13.78-2.23h16.43v8.8H657.6
			c-4.52,0-7.56,0.73-9.11,2.17c-1.56,1.45-2.33,3.23-2.33,5.35c0,2.4,0.95,4.31,2.86,5.72c1.91,1.41,4.56,2.12,7.95,2.12
			c3.25,0,6.16-0.74,8.74-2.23c2.58-1.48,4.43-3.67,5.56-6.57l2.23,7.95c-1.27,3.32-3.55,5.9-6.84,7.74
			C663.37,265.38,659.22,266.3,654.2,266.3z M672.01,265.55v-11.45l-0.74-2.44v-20.03c0-3.88-1.17-6.9-3.5-9.06
			c-2.33-2.15-5.86-3.23-10.6-3.23c-3.18,0-6.3,0.49-9.38,1.48c-3.07,0.99-5.67,2.37-7.79,4.13l-5.19-9.64
			c3.04-2.33,6.66-4.08,10.86-5.25c4.2-1.17,8.57-1.75,13.09-1.75c8.2,0,14.54,1.96,19.02,5.88c4.49,3.92,6.73,9.98,6.73,18.17
			v33.17H672.01z"/>
		<path class="st1" d="M725.52,263.01c-5.37,0-10.23-1.15-14.57-3.44c-4.35-2.3-7.77-5.49-10.28-9.59c-2.51-4.1-3.76-8.9-3.76-14.41
			c0-5.44,1.25-10.21,3.76-14.31c2.51-4.1,5.93-7.28,10.28-9.54c4.35-2.26,9.2-3.39,14.57-3.39c4.8,0,9.11,0.95,12.93,2.86
			c3.81,1.91,6.87,4.87,9.17,8.9c2.3,4.03,3.44,9.18,3.44,15.47c0,6.29-1.15,11.46-3.44,15.53c-2.3,4.06-5.35,7.07-9.17,9.01
			C734.64,262.04,730.33,263.01,725.52,263.01z M727.22,286.85c-5.23,0-10.33-0.69-15.31-2.07c-4.98-1.38-9.06-3.37-12.24-5.99
			l5.93-9.96c2.47,2.05,5.6,3.69,9.38,4.93c3.78,1.24,7.61,1.86,11.5,1.86c6.22,0,10.77-1.43,13.67-4.29
			c2.9-2.86,4.35-7.15,4.35-12.88v-10.07l1.06-12.82l-0.42-12.82v-13.78h12.61v48.01c0,10.24-2.61,17.78-7.84,22.63
			C744.67,284.43,737.11,286.85,727.22,286.85z M727.54,251.78c3.32,0,6.29-0.69,8.9-2.07c2.61-1.38,4.64-3.28,6.09-5.72
			c1.45-2.44,2.17-5.25,2.17-8.43c0-3.18-0.73-5.99-2.17-8.42c-1.45-2.44-3.48-4.31-6.09-5.62c-2.61-1.31-5.58-1.96-8.9-1.96
			c-3.32,0-6.3,0.65-8.95,1.96c-2.65,1.31-4.7,3.18-6.15,5.62c-1.45,2.44-2.17,5.25-2.17,8.42c0,3.18,0.72,5.99,2.17,8.43
			c1.45,2.44,3.5,4.34,6.15,5.72C721.23,251.09,724.22,251.78,727.54,251.78z"/>
		<path class="st1" d="M801.72,266.3c-6.29,0-11.78-1.25-16.48-3.76c-4.7-2.51-8.34-5.95-10.92-10.33
			c-2.58-4.38-3.87-9.36-3.87-14.94c0-5.65,1.25-10.65,3.76-15c2.51-4.35,5.97-7.75,10.39-10.23c4.41-2.47,9.45-3.71,15.1-3.71
			c5.51,0,10.42,1.2,14.73,3.6c4.31,2.4,7.7,5.79,10.17,10.17c2.47,4.38,3.71,9.54,3.71,15.47c0,0.57-0.02,1.2-0.05,1.91
			c-0.04,0.71-0.09,1.38-0.16,2.01h-47.16v-8.8h40.16l-5.19,2.76c0.07-3.25-0.6-6.11-2.01-8.58c-1.41-2.47-3.34-4.41-5.78-5.83
			c-2.44-1.41-5.25-2.12-8.43-2.12c-3.25,0-6.09,0.71-8.53,2.12c-2.44,1.41-4.34,3.37-5.72,5.88c-1.38,2.51-2.07,5.46-2.07,8.85
			v2.12c0,3.39,0.78,6.4,2.33,9.01c1.55,2.61,3.74,4.63,6.57,6.04c2.83,1.41,6.08,2.12,9.75,2.12c3.18,0,6.04-0.49,8.58-1.48
			c2.54-0.99,4.8-2.54,6.78-4.66l7.1,8.16c-2.54,2.97-5.74,5.25-9.59,6.84C811.06,265.5,806.66,266.3,801.72,266.3z"/>
		<path class="st1" d="M841.03,265.55v-56.59h12.61v15.58l-1.48-4.56c1.7-3.81,4.36-6.71,8-8.69c3.64-1.98,8.18-2.97,13.62-2.97
			v12.61c-0.57-0.14-1.1-0.23-1.59-0.27c-0.49-0.03-0.99-0.05-1.48-0.05c-5.02,0-9.01,1.47-11.97,4.4
			c-2.97,2.93-4.45,7.3-4.45,13.09v27.45H841.03z"/>
	</g>
</g>
</svg>
