<svg
    width="25"
    height="23"
    viewBox="0 0 25 23"
    fill="none"
    xmlns="http://www.w3.org/2000/svg"
    className="w-[18px]"
>
    <path
        d="M24.3439 5.108C24.3419 4.96004 24.2902 4.81707 24.1969 4.70217L21.8179 1.7284C21.6181 1.47763 21.3634 1.27598 21.0735 1.13892C20.7837 1.00186 20.4662 0.933035 20.1456 0.937725H4.75197C4.43253 0.934106 4.11647 1.00345 3.82788 1.14047C3.53929 1.27749 3.28578 1.47857 3.08666 1.7284L0.707647 4.70217C0.608876 4.82527 0.554626 4.97816 0.553711 5.13599V17.7308C0.553711 18.6587 0.922307 19.5485 1.57841 20.2046C2.23452 20.8607 3.12439 21.2293 4.05226 21.2293C4.23784 21.2293 4.41581 21.1556 4.54703 21.0244C4.67825 20.8932 4.75197 20.7152 4.75197 20.5296C4.75197 20.344 4.67825 20.1661 4.54703 20.0348C4.41581 19.9036 4.23784 19.8299 4.05226 19.8299C3.49554 19.8299 2.96162 19.6088 2.56795 19.2151C2.17429 18.8214 1.95313 18.2875 1.95313 17.7308V5.8357H22.9444V17.7308C22.9444 18.2875 22.7233 18.8214 22.3296 19.2151C21.936 19.6088 21.402 19.8299 20.8453 19.8299C20.6597 19.8299 20.4818 19.9036 20.3505 20.0348C20.2193 20.1661 20.1456 20.344 20.1456 20.5296C20.1456 20.7152 20.2193 20.8932 20.3505 21.0244C20.4818 21.1556 20.6597 21.2293 20.8453 21.2293C21.7732 21.2293 22.6631 20.8607 23.3192 20.2046C23.9753 19.5485 24.3439 18.6587 24.3439 17.7308C24.3439 17.6958 24.3439 5.13599 24.3439 5.108ZM2.70882 4.43628L4.17821 2.60304C4.24626 2.51678 4.33366 2.44777 4.43334 2.40157C4.53302 2.35538 4.64218 2.33331 4.75197 2.33715H20.1456C20.2507 2.33763 20.3543 2.36178 20.4488 2.40782C20.5433 2.45385 20.6262 2.52057 20.6914 2.60304L22.1608 4.43628H2.70882ZM12.4488 8.9844C10.593 8.9844 8.8133 9.72159 7.50109 11.0338C6.18888 12.346 5.45168 14.1258 5.45168 15.9815C5.81553 25.2597 19.082 25.2527 19.4459 15.9815C19.4459 15.0626 19.2649 14.1528 18.9133 13.3038C18.5616 12.4549 18.0462 11.6835 17.3965 11.0338C16.7467 10.3841 15.9754 9.86866 15.1265 9.51702C14.2775 9.16538 13.3677 8.9844 12.4488 8.9844ZM12.4488 21.5792C10.9642 21.5792 9.5404 20.9894 8.49063 19.9397C7.44086 18.8899 6.85111 17.4661 6.85111 15.9815C7.117 8.57157 17.7876 8.57157 18.0465 15.9815C18.0465 17.4661 17.4567 18.8899 16.4069 19.9397C15.3572 20.9894 13.9334 21.5792 12.4488 21.5792ZM16.0943 13.3856C16.1599 13.4506 16.2119 13.528 16.2474 13.6133C16.283 13.6985 16.3013 13.79 16.3013 13.8824C16.3013 13.9747 16.283 14.0662 16.2474 14.1515C16.2119 14.2367 16.1599 14.3141 16.0943 14.3792L11.896 18.5774C11.831 18.643 11.7536 18.6951 11.6683 18.7306C11.583 18.7661 11.4916 18.7844 11.3992 18.7844C11.3069 18.7844 11.2154 18.7661 11.1301 18.7306C11.0449 18.6951 10.9675 18.643 10.9024 18.5774L8.8033 16.4783C8.73806 16.4131 8.68631 16.3356 8.651 16.2504C8.61569 16.1651 8.59752 16.0738 8.59752 15.9815C8.59752 15.8892 8.61569 15.7979 8.651 15.7126C8.68631 15.6274 8.73806 15.5499 8.8033 15.4847C8.93506 15.3529 9.11376 15.2789 9.30009 15.2789C9.39235 15.2789 9.48372 15.2971 9.56896 15.3324C9.6542 15.3677 9.73165 15.4195 9.79689 15.4847L11.3992 17.094L15.1007 13.3856C15.1657 13.32 15.2431 13.2679 15.3284 13.2324C15.4137 13.1969 15.5051 13.1786 15.5975 13.1786C15.6899 13.1786 15.7813 13.1969 15.8666 13.2324C15.9518 13.2679 16.0292 13.32 16.0943 13.3856Z"
        fill="white"
    />
</svg>