<svg
    width="20"
    height="20"
    viewBox="0 0 20 20"
    fill="none"
    xmlns="http://www.w3.org/2000/svg"
>
    <path
        d="M13.4375 15.5H6.5625C6.47133 15.5 6.3839 15.5362 6.31943 15.6007C6.25497 15.6651 6.21875 15.7526 6.21875 15.8438C6.21875 15.9349 6.25497 16.0224 6.31943 16.0868C6.3839 16.1513 6.47133 16.1875 6.5625 16.1875H13.4375C13.5287 16.1875 13.6161 16.1513 13.6806 16.0868C13.745 16.0224 13.7812 15.9349 13.7812 15.8438C13.7812 15.7526 13.745 15.6651 13.6806 15.6007C13.6161 15.5362 13.5287 15.5 13.4375 15.5ZM13.4375 13.4375H6.5625C6.47133 13.4375 6.3839 13.4737 6.31943 13.5382C6.25497 13.6026 6.21875 13.6901 6.21875 13.7812C6.21875 13.8724 6.25497 13.9599 6.31943 14.0243C6.3839 14.0888 6.47133 14.125 6.5625 14.125H13.4375C13.5287 14.125 13.6161 14.0888 13.6806 14.0243C13.745 13.9599 13.7812 13.8724 13.7812 13.7812C13.7812 13.6901 13.745 13.6026 13.6806 13.5382C13.6161 13.4737 13.5287 13.4375 13.4375 13.4375ZM13.4375 17.5625H6.5625C6.47133 17.5625 6.3839 17.5987 6.31943 17.6632C6.25497 17.7276 6.21875 17.8151 6.21875 17.9062C6.21875 17.9974 6.25497 18.0849 6.31943 18.1493C6.3839 18.2138 6.47133 18.25 6.5625 18.25H13.4375C13.5287 18.25 13.6161 18.2138 13.6806 18.1493C13.745 18.0849 13.7812 17.9974 13.7812 17.9062C13.7812 17.8151 13.745 17.7276 13.6806 17.6632C13.6161 17.5987 13.5287 17.5625 13.4375 17.5625Z"
        fill="white"
    />
    <path
        d="M18.9375 6.21875H18.5938V4.84375C18.5935 4.57033 18.4847 4.30819 18.2914 4.11485C18.0981 3.92151 17.8359 3.81277 17.5625 3.8125H16.5312V1.0625C16.531 0.789079 16.4222 0.526935 16.2289 0.333598C16.0356 0.14026 15.7734 0.031523 15.5 0.03125H4.84375C4.57033 0.031523 4.30819 0.14026 4.11485 0.333598C3.92151 0.526935 3.81277 0.789079 3.8125 1.0625V3.8125H2.78125C2.50783 3.81277 2.24569 3.92151 2.05235 4.11485C1.85901 4.30819 1.75027 4.57033 1.75 4.84375V6.21875H1.0625C0.789079 6.21902 0.526935 6.32776 0.333598 6.5211C0.14026 6.71444 0.031523 6.97658 0.03125 7.25V13.4375C0.031523 13.7109 0.14026 13.9731 0.333598 14.1664C0.526935 14.3597 0.789079 14.4685 1.0625 14.4688H4.15625V18.9375C4.15652 19.2109 4.26526 19.4731 4.4586 19.6664C4.65194 19.8597 4.91408 19.9685 5.1875 19.9688H14.8125C15.0859 19.9685 15.3481 19.8597 15.5414 19.6664C15.7347 19.4731 15.8435 19.2109 15.8438 18.9375V14.4688H18.9375C19.2109 14.4685 19.4731 14.3597 19.6664 14.1664C19.8597 13.9731 19.9685 13.7109 19.9688 13.4375V7.25C19.9685 6.97658 19.8597 6.71444 19.6664 6.5211C19.4731 6.32776 19.2109 6.21902 18.9375 6.21875ZM17.5625 4.5C17.6536 4.50009 17.741 4.53634 17.8055 4.60078C17.8699 4.66523 17.9062 4.75261 17.9062 4.84375V6.21875H16.5312V4.5H17.5625ZM4.84375 0.71875H15.5C15.5911 0.718841 15.6785 0.755087 15.743 0.819533C15.8074 0.883978 15.8437 0.97136 15.8438 1.0625V6.21875H4.5V1.0625C4.50009 0.97136 4.53634 0.883978 4.60078 0.819533C4.66523 0.755087 4.75261 0.718841 4.84375 0.71875ZM2.4375 4.84375C2.43759 4.75261 2.47384 4.66523 2.53828 4.60078C2.60273 4.53634 2.69011 4.50009 2.78125 4.5H3.8125V6.21875H2.4375V4.84375ZM14.8125 19.2812H5.1875C5.09636 19.2812 5.00898 19.2449 4.94453 19.1805C4.88009 19.116 4.84384 19.0286 4.84375 18.9375V12.4062H15.1562V18.9375C15.1562 19.0286 15.1199 19.116 15.0555 19.1805C14.991 19.2449 14.9036 19.2812 14.8125 19.2812ZM19.2812 13.4375C19.2812 13.5286 19.2449 13.616 19.1805 13.6805C19.116 13.7449 19.0286 13.7812 18.9375 13.7812H15.8438V12.4062H16.875C16.9662 12.4062 17.0536 12.37 17.1181 12.3056C17.1825 12.2411 17.2188 12.1537 17.2188 12.0625C17.2188 11.9713 17.1825 11.8839 17.1181 11.8194C17.0536 11.755 16.9662 11.7188 16.875 11.7188H3.125C3.03383 11.7188 2.9464 11.755 2.88193 11.8194C2.81747 11.8839 2.78125 11.9713 2.78125 12.0625C2.78125 12.1537 2.81747 12.2411 2.88193 12.3056C2.9464 12.37 3.03383 12.4062 3.125 12.4062H4.15625V13.7812H1.0625C0.97136 13.7812 0.883978 13.7449 0.819533 13.6805C0.755087 13.616 0.718841 13.5286 0.71875 13.4375V7.25C0.718841 7.15886 0.755087 7.07148 0.819533 7.00703C0.883978 6.94259 0.97136 6.90634 1.0625 6.90625H18.9375C19.0286 6.90634 19.116 6.94259 19.1805 7.00703C19.2449 7.07148 19.2812 7.15886 19.2812 7.25V13.4375Z"
        fill="white"
    />
</svg>