<svg width="123" height="142" viewBox="0 0 123 142" fill="none" xmlns="http://www.w3.org/2000/svg">
<path d="M94.9722 83.2717C94.9722 83.7009 94.7991 84.1193 94.4637 84.4412L91.3154 87.4025C90.6663 88.0141 89.6385 87.9819 89.0218 87.3382C88.4051 86.6944 88.4267 85.6751 89.0759 85.0635L92.2242 82.1022C92.8733 81.4906 93.9011 81.5121 94.5178 82.1558C94.8207 82.467 94.9613 82.864 94.9613 83.261L94.9722 83.2717Z" fill="#2D2D2D"/>
<path d="M94.9721 58.3256C94.9721 58.7226 94.8206 59.1196 94.5285 59.4307C93.9118 60.0745 92.884 60.0959 92.2349 59.4844L89.0866 56.523C88.4375 55.9114 88.4159 54.8922 89.0325 54.2484C89.6492 53.6046 90.677 53.5832 91.3261 54.1947L94.4744 57.1561C94.8098 57.4672 94.9829 57.8964 94.9829 58.3256H94.9721Z" fill="#2D2D2D"/>
<path d="M109.377 56.1476V56.1368C107.982 54.7635 106.11 54.0017 104.163 54.0017H102.388C99.3808 54.0017 96.4921 55.1605 94.3175 57.2205L92.5757 58.8836C90.6283 60.7398 89.3949 63.2076 89.092 65.8577L88.6593 69.5165C88.5511 70.4177 88.5511 71.3298 88.6593 72.231L89.0704 75.6108C89.3949 78.2503 90.6283 80.7073 92.5541 82.5528L94.231 84.1515C96.4597 86.2652 99.424 87.4239 102.497 87.3703L104.314 87.3381C106.175 87.3059 107.949 86.587 109.291 85.3102C110.405 84.248 111.044 82.7781 111.044 81.2438V60.1282C111.044 58.6368 110.448 57.1991 109.377 56.1476Z" fill="#830000"/>
<path d="M110.454 56.1476V56.1368C109.058 54.7635 107.187 54.0017 105.239 54.0017H103.465C100.457 54.0017 97.5688 55.1605 95.3942 57.2205L93.6524 58.8836C91.705 60.7398 90.4716 63.2076 90.1687 65.8577L89.7359 69.5165C89.6277 70.4177 89.6277 71.3298 89.7359 72.231L90.147 75.6108C90.4716 78.2503 91.705 80.7073 93.6307 82.5528L95.3076 84.1515C97.5363 86.2652 100.501 87.4239 103.573 87.3703L105.391 87.3381C107.252 87.3059 109.026 86.587 110.368 85.3102C111.482 84.248 112.12 82.7781 112.12 81.2438V60.1282C112.12 58.6368 111.525 57.1991 110.454 56.1476Z" fill="#2D2D2D"/>
<path d="M119.845 86.3509L120.829 85.0633C122.052 83.4539 122.723 81.5011 122.723 79.484V62.1881C122.723 60.1388 122.03 58.1431 120.764 56.523L119.834 55.332C118.893 54.1303 117.064 54.141 116.134 55.3642L114.565 57.435C113.786 58.465 113.364 59.7311 113.364 61.0186V80.6321C113.364 81.8981 113.775 83.132 114.522 84.1621L116.112 86.3187C117.032 87.5633 118.904 87.574 119.845 86.3509Z" fill="#830000"/>
<path d="M118.041 84.8644L119.065 83.6859C120.337 82.2127 121.035 80.4253 121.035 78.579V62.7476C121.035 60.8718 120.314 59.0451 118.997 57.5621L118.029 56.472C117.05 55.372 115.148 55.3818 114.18 56.5014L112.547 58.3969C111.737 59.3397 111.298 60.4986 111.298 61.6771V79.6298C111.298 80.7887 111.726 81.9181 112.502 82.8609L114.157 84.8349C115.114 85.9742 117.061 85.984 118.041 84.8644Z" fill="#212529"/>
<path d="M118.86 86.3509L119.845 85.0633C121.067 83.4539 121.738 81.5011 121.738 79.484V62.1881C121.738 60.1388 121.046 58.1431 119.78 56.523L118.85 55.332C117.908 54.1303 116.08 54.141 115.15 55.3642L113.581 57.435C112.802 58.465 112.38 59.7311 112.38 61.0186V80.6321C112.38 81.8981 112.791 83.132 113.538 84.1621L115.128 86.3187C116.047 87.5633 117.919 87.574 118.86 86.3509Z" fill="#2D2D2D"/>
<path d="M27.7505 58.5457C27.7505 58.1165 27.9236 57.6981 28.259 57.3762L31.4073 54.4148C32.0564 53.8033 33.0842 53.8355 33.7009 54.4792C34.3175 55.123 34.2959 56.1423 33.6468 56.7539L30.4985 59.7152C29.8494 60.3268 28.8216 60.3053 28.2049 59.6616C27.902 59.3504 27.7613 58.9534 27.7613 58.5564L27.7505 58.5457Z" fill="#2D2D2D"/>
<path d="M27.7506 83.4918C27.7506 83.0948 27.902 82.6978 28.1941 82.3867C28.8108 81.7429 29.8386 81.7214 30.4877 82.333L33.636 85.2944C34.2852 85.9059 34.3068 86.9252 33.6901 87.569C33.0735 88.2128 32.0457 88.2342 31.3965 87.6226L28.2482 84.6613C27.9129 84.3502 27.7398 83.921 27.7398 83.4918L27.7506 83.4918Z" fill="#2D2D2D"/>
<path d="M13.3453 85.6698L13.3453 85.6805C14.7409 87.0539 16.6126 87.8157 18.56 87.8157L20.3342 87.8157C23.3419 87.8157 26.2305 86.6569 28.4051 84.5969L30.147 82.9338C32.0944 81.0776 33.3277 78.6098 33.6306 75.9597L34.0634 72.3009C34.1716 71.3996 34.1716 70.4876 34.0634 69.5864L33.6523 66.2066C33.3277 63.5671 32.0944 61.1101 30.1686 59.2646L28.4917 57.6659C26.263 55.5522 23.2986 54.3934 20.2261 54.4471L18.4085 54.4793C16.5476 54.5115 14.7734 55.2303 13.4318 56.5071C12.3175 57.5694 11.6792 59.0393 11.6792 60.5736L11.6792 81.6892C11.6792 83.1806 12.2742 84.6183 13.3453 85.6698Z" fill="#830000"/>
<path d="M12.2686 85.6698L12.2686 85.6805C13.6642 87.0539 15.5359 87.8157 17.4833 87.8157L19.2576 87.8157C22.2652 87.8157 25.1539 86.6569 27.3285 84.5969L29.0703 82.9338C31.0177 81.0776 32.251 78.6098 32.554 75.9597L32.9867 72.3009C33.0949 71.3996 33.0949 70.4876 32.9867 69.5864L32.5756 66.2066C32.251 63.5671 31.0177 61.1101 29.0919 59.2646L27.415 57.6659C25.1863 55.5522 22.222 54.3934 19.1494 54.4471L17.3318 54.4793C15.471 54.5115 13.6967 55.2303 12.3552 56.5071C11.2408 57.5694 10.6025 59.0393 10.6025 60.5736L10.6025 81.6892C10.6025 83.1806 11.1975 84.6183 12.2686 85.6698Z" fill="#2D2D2D"/>
<path d="M2.8779 55.4665L1.89338 56.7541C0.670849 58.3635 7.9601e-05 60.3162 7.94232e-05 62.3334L7.78985e-05 79.6293C7.77179e-05 81.6786 0.692484 83.6743 1.95829 85.2944L2.88871 86.4854C3.82996 87.6871 5.65834 87.6763 6.58877 86.4532L8.1575 84.3824C8.93646 83.3524 9.3584 82.0863 9.3584 80.7988L9.3584 61.1853C9.3584 59.9192 8.94728 58.6854 8.20078 57.6553L6.61041 55.4987C5.6908 54.2541 3.81914 54.2434 2.8779 55.4665Z" fill="#830000"/>
<path d="M4.68209 56.953L3.65773 58.1315C2.38573 59.6047 1.68782 61.3921 1.68782 63.2384L1.68782 79.0698C1.68782 80.9456 2.40824 82.7723 3.72527 84.2553L4.69334 85.3454C5.67267 86.4454 7.57504 86.4355 8.54311 85.316L10.1753 83.4205C10.9858 82.4777 11.4248 81.3188 11.4248 80.1403L11.4248 62.1876C11.4248 61.0287 10.9971 59.8993 10.2203 58.9565L8.56562 56.9825C7.60881 55.8432 5.66141 55.8334 4.68209 56.953Z" fill="#212529"/>
<path d="M3.86227 55.4665L2.87776 56.7541C1.65522 58.3635 0.984455 60.3162 0.984454 62.3334L0.984453 79.6293C0.984453 81.6786 1.67686 83.6743 2.94267 85.2944L3.87309 86.4854C4.81433 87.6871 6.64272 87.6763 7.57314 86.4532L9.14188 84.3824C9.92083 83.3524 10.3428 82.0863 10.3428 80.7988L10.3428 61.1853C10.3428 59.9192 9.93166 58.6854 9.18515 57.6553L7.59478 55.4987C6.67518 54.2541 4.80351 54.2434 3.86227 55.4665Z" fill="#2D2D2D"/>
<path d="M48.3616 114.296C47.9288 114.296 47.5069 114.124 47.1823 113.791L44.1963 110.669C43.5797 110.025 43.6121 109.006 44.2613 108.395C44.9104 107.783 45.9382 107.804 46.5549 108.448L49.5409 111.57C50.1575 112.214 50.1359 113.234 49.4868 113.845C49.173 114.146 48.7727 114.285 48.3724 114.285L48.3616 114.296Z" fill="#2D2D2D"/>
<path d="M73.5154 114.296C73.1151 114.296 72.7148 114.146 72.4011 113.856C71.7519 113.244 71.7303 112.225 72.347 111.581L75.333 108.459C75.9497 107.815 76.9775 107.794 77.6266 108.405C78.2757 109.017 78.2974 110.036 77.6807 110.68L74.6947 113.802C74.3809 114.135 73.9482 114.306 73.5154 114.306L73.5154 114.296Z" fill="#2D2D2D"/>
<path d="M75.7118 128.582L75.7226 128.582C77.1074 127.198 77.8755 125.342 77.8755 123.41L77.8755 121.651C77.8755 118.668 76.7071 115.803 74.6299 113.647L72.9529 111.919C71.0813 109.988 68.5929 108.765 65.9207 108.464L62.2314 108.035C61.3227 107.928 60.4031 107.928 59.4943 108.035L56.0863 108.443C53.4249 108.765 50.9474 109.988 49.0865 111.898L47.4745 113.561C45.3432 115.771 44.1748 118.711 44.2288 121.758L44.2613 123.561C44.2938 125.406 45.0186 127.166 46.3061 128.496C47.3771 129.601 48.8593 130.234 50.4064 130.234L71.698 130.234C73.2018 130.234 74.6515 129.644 75.7118 128.582Z" fill="#830000"/>
<path d="M75.7118 129.65L75.7226 129.65C77.1074 128.266 77.8755 126.41 77.8755 124.478L77.8755 122.719C77.8755 119.736 76.7071 116.871 74.6299 114.714L72.9529 112.987C71.0813 111.056 68.5929 109.833 65.9207 109.532L62.2314 109.103C61.3227 108.996 60.4031 108.996 59.4943 109.103L56.0863 109.511C53.4249 109.833 50.9474 111.056 49.0865 112.966L47.4745 114.629C45.3432 116.839 44.1748 119.779 44.2288 122.826L44.2613 124.628C44.2938 126.474 45.0186 128.234 46.3061 129.564C47.3771 130.669 48.8593 131.302 50.4064 131.302L71.698 131.302C73.2018 131.302 74.6515 130.712 75.7118 129.65Z" fill="#2D2D2D"/>
<path d="M45.2568 138.963L46.5551 139.939C48.1779 141.152 50.1469 141.817 52.1809 141.817L69.6209 141.817C71.6873 141.817 73.6996 141.13 75.3333 139.875L76.5342 138.952C77.7459 138.019 77.7351 136.206 76.5017 135.283L74.4137 133.727C73.375 132.955 72.0984 132.536 70.8002 132.536L51.0233 132.536C49.7466 132.536 48.5025 132.944 47.4639 133.684L45.2893 135.261C44.0343 136.173 44.0235 138.03 45.2568 138.963Z" fill="#830000"/>
<path d="M46.7558 137.173L47.9442 138.189C49.4296 139.451 51.2319 140.143 53.0936 140.143L69.057 140.143C70.9484 140.143 72.7903 139.428 74.2856 138.122L75.3849 137.162C76.494 136.191 76.4841 134.304 75.3551 133.344L73.4439 131.725C72.4932 130.922 71.3247 130.486 70.1364 130.486L52.034 130.486C50.8655 130.486 49.7267 130.911 48.776 131.681L46.7855 133.322C45.6368 134.271 45.6269 136.202 46.7558 137.173Z" fill="#212529"/>
<path d="M45.2568 137.986L46.5551 138.962C48.1779 140.175 50.1469 140.84 52.1809 140.84L69.6209 140.84C71.6873 140.84 73.6996 140.153 75.3333 138.898L76.5342 137.975C77.7459 137.042 77.7351 135.229 76.5017 134.306L74.4137 132.75C73.375 131.978 72.0984 131.559 70.8002 131.559L51.0233 131.559C49.7466 131.559 48.5025 131.967 47.4639 132.707L45.2893 134.284C44.0343 135.196 44.0235 137.053 45.2568 137.986Z" fill="#2D2D2D"/>
<path d="M72.4533 27.5216C72.8861 27.5216 73.308 27.6933 73.6326 28.0259L76.6186 31.1482C77.2353 31.792 77.2028 32.8113 76.5537 33.4228C75.9046 34.0344 74.8768 34.013 74.2601 33.3692L71.2741 30.2469C70.6574 29.6031 70.679 28.5839 71.3282 27.9723C71.6419 27.6718 72.0422 27.5324 72.4425 27.5324L72.4533 27.5216Z" fill="#2D2D2D"/>
<path d="M47.2995 27.5216C47.6998 27.5216 48.1001 27.6718 48.4139 27.9615C49.063 28.5731 49.0846 29.5924 48.468 30.2362L45.482 33.3584C44.8653 34.0022 43.8375 34.0237 43.1884 33.4121C42.5392 32.8005 42.5176 31.7812 43.1343 31.1374L46.1203 28.0152C46.434 27.6826 46.8668 27.5109 47.2995 27.5109L47.2995 27.5216Z" fill="#2D2D2D"/>
<path d="M45.1032 13.2354L45.0924 13.2354C43.7076 14.6195 42.9394 16.4757 42.9394 18.407L42.9394 20.1666C42.9394 23.1494 44.1079 26.0142 46.1851 28.1708L47.862 29.8983C49.7337 31.8296 52.222 33.0527 54.8943 33.3531L58.5835 33.7823C59.4923 33.8896 60.4119 33.8896 61.3207 33.7823L64.7286 33.3746C67.3901 33.0527 69.8676 31.8296 71.7284 29.9197L73.3404 28.2567C75.4717 26.0464 76.6402 23.1065 76.5861 20.0594L76.5536 18.2568C76.5212 16.4113 75.7963 14.6517 74.5089 13.3213C73.4378 12.2161 71.9556 11.5831 70.4085 11.5831L49.117 11.5831C47.6132 11.5831 46.1634 12.1732 45.1032 13.2354Z" fill="#830000"/>
<path d="M45.1032 12.1675L45.0924 12.1675C43.7076 13.5516 42.9394 15.4078 42.9394 17.3391L42.9394 19.0988C42.9394 22.0816 44.1079 24.9463 46.1851 27.1029L47.862 28.8304C49.7337 30.7617 52.222 31.9848 54.8943 32.2853L58.5835 32.7145C59.4923 32.8217 60.4119 32.8217 61.3207 32.7145L64.7286 32.3067C67.3901 31.9848 69.8676 30.7617 71.7284 28.8518L73.3404 27.1888C75.4717 24.9785 76.6402 22.0386 76.5861 18.9915L76.5536 17.1889C76.5212 15.3435 75.7963 13.5838 74.5089 12.2534C73.4378 11.1482 71.9556 10.5152 70.4085 10.5152L49.117 10.5152C47.6132 10.5152 46.1634 11.1053 45.1032 12.1675Z" fill="#2D2D2D"/>
<path d="M75.5581 2.85431L74.2599 1.87793C72.637 0.665499 70.668 0.000272682 68.6341 0.000272658L51.194 0.000272452C49.1276 0.000272427 47.1153 0.686957 45.4817 1.9423L44.2808 2.86504C43.0691 3.7985 43.0799 5.61178 44.3132 6.53451L46.4013 8.09028C47.4399 8.8628 48.7165 9.28125 50.0148 9.28125L69.7917 9.28125C71.0683 9.28125 72.3125 8.87353 73.3511 8.1332L75.5257 6.55597C76.7807 5.64396 76.7915 3.78777 75.5581 2.85431Z" fill="#830000"/>
<path d="M74.0591 4.64406L72.8708 3.62817C71.3854 2.36669 69.583 1.67455 67.7213 1.67455L51.758 1.67455C49.8665 1.67454 48.0246 2.38901 46.5293 3.69516L45.4301 4.65523C44.321 5.62646 44.3309 7.51311 45.4598 8.47317L47.371 10.0919C48.3217 10.8957 49.4902 11.3311 50.6786 11.3311L68.7809 11.3311C69.9494 11.3311 71.0883 10.9068 72.0389 10.1366L74.0294 8.4955C75.1781 7.5466 75.188 5.61529 74.0591 4.64406Z" fill="#212529"/>
<path d="M75.5581 3.83087L74.2599 2.85449C72.637 1.64206 70.668 0.976835 68.6341 0.976835L51.194 0.976835C49.1276 0.976835 47.1153 1.66352 45.4817 2.91887L44.2808 3.8416C43.0691 4.77506 43.0799 6.58834 44.3132 7.51107L46.4013 9.06684C47.4399 9.83936 48.7165 10.2578 50.0148 10.2578L69.7917 10.2578C71.0683 10.2578 72.3125 9.85009 73.3511 9.10976L75.5257 7.53253C76.7807 6.62053 76.7915 4.76433 75.5581 3.83087Z" fill="#2D2D2D"/>
<rect x="39.4844" y="102.659" width="63.4999" height="42.686" rx="21.343" transform="rotate(-90 39.4844 102.659)" fill="#830000"/>
</svg>
