<?xml version="1.0" encoding="utf-8"?>
<svg viewBox="-279.0302 50.0321 950.544 854.1979" xmlns="http://www.w3.org/2000/svg">
  <path d="M 73.257 901.805 C 62.373 896.968 52.698 890.317 44.232 881.851 C 35.767 873.386 29.116 863.712 24.278 852.828 C 19.442 841.943 17.022 831.059 17.022 820.175 C 17.022 809.292 32.744 695.008 64.186 477.327 C 95.629 259.645 113.77 143.548 118.608 129.036 C 123.444 114.525 131.305 101.222 142.19 89.128 C 153.074 77.035 166.982 67.359 183.911 60.104 C 200.843 52.848 222.007 49.22 247.402 49.22 C 272.798 49.22 334.475 59.499 432.432 80.058 C 530.388 100.617 630.764 119.361 733.558 136.292 C 836.352 153.223 897.424 167.735 916.772 179.829 C 936.123 191.922 949.426 205.829 956.682 221.55 C 963.938 237.273 967.566 252.993 967.566 268.716 C 967.566 284.437 954.262 343.695 927.657 446.489 C 901.052 549.283 886.539 604.307 884.121 611.563 C 881.703 618.819 878.075 623.052 873.237 624.262 C 868.4 625.471 863.562 623.052 858.724 617.006 C 853.888 610.958 850.259 602.494 847.841 591.609 C 845.422 580.725 855.096 532.956 876.865 448.302 C 898.633 363.649 910.121 314.065 911.331 299.554 C 912.541 285.042 910.726 272.342 905.89 261.46 C 901.052 250.575 804.304 227.598 615.646 192.527 C 426.99 157.456 321.173 139.315 298.194 138.107 C 275.217 136.897 258.891 138.107 249.217 141.735 C 239.541 145.363 230.471 152.014 222.007 161.689 C 213.541 171.363 207.494 182.852 203.866 196.155 C 200.238 209.458 186.331 304.995 162.144 482.769 C 137.957 660.542 125.259 760.313 124.049 782.08 C 122.841 803.849 123.444 817.756 125.863 823.803 C 128.282 829.849 134.934 835.897 145.818 841.943 C 156.701 847.99 170.005 851.013 185.726 851.013 C 201.448 851.013 270.984 843.757 394.337 829.246 C 517.69 814.733 590.251 807.477 612.018 807.477 C 633.787 807.477 648.904 809.895 657.369 814.733 C 665.835 819.571 671.881 826.222 675.509 834.687 C 677.323 838.92 679.138 843.153 680.951 847.385 C 674.905 849.199 668.858 851.013 662.812 852.828 C 650.718 856.456 552.156 866.735 367.127 883.666 C 182.098 900.597 84.141 906.643 73.257 901.805 Z" style="fill: rgb(255, 0, 0); fill-opacity: 1;" transform="matrix(1, 0, 0, -1, -296.0521850585937, 953.4500122070312)"/>
</svg>